<svg width="22" height="22" viewBox="0 0 22 22" fill="none" xmlns="http://www.w3.org/2000/svg">
<path d="M11 21C16.5228 21 21 16.5228 21 11C21 5.47715 16.5228 1 11 1C5.47715 1 1 5.47715 1 11C1 16.5228 5.47715 21 11 21Z" fill="#1993DF" stroke="white" stroke-width="2"/>
<path fill-rule="evenodd" clip-rule="evenodd" d="M12 6C12 5.44772 11.5523 5 11 5C10.4477 5 10 5.44772 10 6V10H6C5.44772 10 5 10.4477 5 11C5 11.5523 5.44772 12 6 12H10V16C10 16.5523 10.4477 17 11 17C11.5523 17 12 16.5523 12 16V12H16C16.5523 12 17 11.5523 17 11C17 10.4477 16.5523 10 16 10H12V6Z" fill="white"/>
</svg>
