<svg width="28" height="17" viewBox="0 0 28 17" fill="none" xmlns="http://www.w3.org/2000/svg">
<path d="M4.2381 1.16071C2.5385 1.16071 1.16071 2.5385 1.16071 4.2381V12.7619C1.16071 14.4615 2.5385 15.8393 4.23809 15.8393H23.7619C25.4615 15.8393 26.8393 14.4615 26.8393 12.7619V4.2381C26.8393 2.53851 25.4615 1.16071 23.7619 1.16071H4.2381Z" fill="url(#paint0_radial_472_84)" stroke="white" stroke-width="1.67857"/>
<path d="M5.23047 11H8.875V10.0273H6.41016V5.36328H5.23047V11ZM10.0742 11H11.2539V5.36328H10.0742V11ZM14.2188 11H15.6562L17.543 5.36328H16.2344L14.9492 9.79297H14.9258L13.6367 5.36328H12.332L14.2188 11ZM18.6211 11H22.3555V10.0273H19.8008V8.60938H22.2109V7.6875H19.8008V6.33594H22.3555V5.36328H18.6211V11Z" fill="white"/>
<defs>
<radialGradient id="paint0_radial_472_84" cx="0" cy="0" r="1" gradientUnits="userSpaceOnUse" gradientTransform="translate(3.62476 15.0252) rotate(-30.0668) scale(18.9212 26.0536)">
<stop stop-color="#FEC66A"/>
<stop offset="0.648597" stop-color="#D60A66"/>
</radialGradient>
</defs>
</svg>
