<svg width="142" height="65" viewBox="0 0 142 65" fill="none" xmlns="http://www.w3.org/2000/svg">
<g filter="url(#filter0_d_195_1733)">
<path fill-rule="evenodd" clip-rule="evenodd" d="M62 19.1716L80 19.1716L72.4142 11.5858C71.6332 10.8047 70.3668 10.8047 69.5858 11.5858L62 19.1716ZM5.87195 23.5397C5 25.251 5 27.4912 5 31.9716V42.3716C5 46.8521 5 49.0923 5.87195 50.8036C6.63893 52.3089 7.86278 53.5327 9.36808 54.2997C11.0794 55.1716 13.3196 55.1716 17.8 55.1716H124.2C128.68 55.1716 130.921 55.1716 132.632 54.2997C134.137 53.5327 135.361 52.3089 136.128 50.8036C137 49.0923 137 46.8521 137 42.3717V31.9717C137 27.4912 137 25.251 136.128 23.5397C135.361 22.0344 134.137 20.8106 132.632 20.0436C130.921 19.1716 128.68 19.1716 124.2 19.1716H17.8C13.3196 19.1716 11.0794 19.1716 9.36808 20.0436C7.86278 20.8106 6.63893 22.0344 5.87195 23.5397Z" fill="#ED4756"/>
</g>
<path d="M107.949 35.4084V35.4282H109.347V35.4084C109.347 34.3933 110.052 33.7078 111.1 33.7078C112.082 33.7078 112.827 34.3604 112.827 35.2305C112.827 35.9292 112.517 36.4302 111.245 37.7551L108.028 41.1038V42.1716H114.436V40.8467H110.085V40.7346L112.201 38.5923C113.796 36.9773 114.284 36.1533 114.284 35.1448C114.284 33.5759 112.952 32.429 111.146 32.429C109.274 32.429 107.949 33.655 107.949 35.4084ZM120.354 42.1716H121.778V40.3325H123.09V39.0142H121.778V32.6597H119.675C117.981 35.1975 116.564 37.4058 115.713 38.9614V40.3325H120.354V42.1716ZM117.131 38.9548C118.251 37.0103 119.346 35.3228 120.288 33.9583H120.374V39.0471H117.131V38.9548Z" fill="white"/>
<path fill-rule="evenodd" clip-rule="evenodd" d="M100.978 43.1641C99.9719 43.8022 98.7791 44.1716 97.5 44.1716C93.9101 44.1716 91 41.2615 91 37.6716C91 34.0818 93.9101 31.1716 97.5 31.1716C101.09 31.1716 104 34.0818 104 37.6716C104 38.9507 103.631 40.1435 102.993 41.1492L104 44.1716L100.978 43.1641Z" fill="white"/>
<path d="M78.5417 42.4023C80.5588 42.4023 81.9893 41.0181 81.9893 39.0801C81.9893 37.241 80.6709 35.9094 78.8647 35.9094C77.7375 35.9094 76.8279 36.4302 76.3665 37.3464H76.2544C76.2874 35.0591 77.1311 33.7341 78.5945 33.7341C79.458 33.7341 80.1304 34.2087 80.3677 34.9866H81.8508C81.5608 33.4309 80.2886 32.429 78.6077 32.429C76.228 32.429 74.8372 34.3142 74.8372 37.5376C74.8372 38.6978 75.0283 39.6667 75.4172 40.4314C76.0369 41.7036 77.1311 42.4023 78.5417 42.4023ZM78.5286 41.1038C77.3948 41.1038 76.5312 40.2336 76.5312 39.0999C76.5312 37.9727 77.375 37.1553 78.5352 37.1553C79.7019 37.1553 80.5259 37.9727 80.5259 39.1262C80.5259 40.2468 79.6624 41.1038 78.5286 41.1038Z" fill="white"/>
<path fill-rule="evenodd" clip-rule="evenodd" d="M65 39.1716C67.2091 39.1716 69 37.3808 69 35.1716C69 32.9625 67.2091 31.1716 65 31.1716C62.7909 31.1716 61 32.9625 61 35.1716C61 37.3808 62.7909 39.1716 65 39.1716Z" fill="white"/>
<path fill-rule="evenodd" clip-rule="evenodd" d="M58 44.1716V43.0288C58 41.4508 59.1084 40.1716 60.4758 40.1716H69.5242C70.8915 40.1716 72 41.454 72 43.0288V44.1716H58Z" fill="white"/>
<path fill-rule="evenodd" clip-rule="evenodd" d="M25.1506 43.6143C24.7762 43.9351 24.2238 43.9351 23.8494 43.6143L23.4125 43.24C19.55 39.928 17 37.7425 17 35.0681C17 32.8825 18.8112 31.1716 21.125 31.1716C22.43 31.1716 23.6825 31.7455 24.5 32.6487C25.3175 31.7455 26.57 31.1716 27.875 31.1716C30.1888 31.1716 32 32.8825 32 35.0681C32 37.7425 29.45 39.928 25.5875 43.24L25.1506 43.6143Z" fill="white"/>
<path d="M35.9492 35.4084V35.4282H37.3467V35.4084C37.3467 34.3933 38.052 33.7078 39.1001 33.7078C40.0823 33.7078 40.8271 34.3604 40.8271 35.2305C40.8271 35.9292 40.5173 36.4302 39.2451 37.7551L36.0283 41.1038V42.1716H42.4355V40.8467H38.085V40.7346L40.2009 38.5923C41.7961 36.9773 42.2839 36.1533 42.2839 35.1448C42.2839 33.5759 40.9524 32.429 39.1462 32.429C37.2742 32.429 35.9492 33.655 35.9492 35.4084ZM46.4293 42.1716H47.9059V32.6597H46.4359L43.931 34.4263V35.9358L46.3172 34.2483H46.4293V42.1716Z" fill="white"/>
<path fill-rule="evenodd" clip-rule="evenodd" d="M71 4C72.1046 4 73 3.10457 73 2C73 0.89543 72.1046 0 71 0C69.8954 0 69 0.89543 69 2C69 3.10457 69.8954 4 71 4Z" fill="#ED4756"/>
<defs>
<filter id="filter0_d_195_1733" x="0" y="10" width="142" height="54.1716" filterUnits="userSpaceOnUse" color-interpolation-filters="sRGB">
<feFlood flood-opacity="0" result="BackgroundImageFix"/>
<feColorMatrix in="SourceAlpha" type="matrix" values="0 0 0 0 0 0 0 0 0 0 0 0 0 0 0 0 0 0 127 0" result="hardAlpha"/>
<feOffset dy="4"/>
<feGaussianBlur stdDeviation="2.5"/>
<feColorMatrix type="matrix" values="0 0 0 0 0 0 0 0 0 0 0 0 0 0 0 0 0 0 0.25 0"/>
<feBlend mode="normal" in2="BackgroundImageFix" result="effect1_dropShadow_195_1733"/>
<feBlend mode="normal" in="SourceGraphic" in2="effect1_dropShadow_195_1733" result="shape"/>
</filter>
</defs>
</svg>
